# xmcd
#
# Track frame offsets: 
#        150
#        17115
#        34602
#        50488
#        74366
#        90066
#        112137
#        129158
#        152292
#        173360
#
# Disc length: 2603 seconds
#
# Revision: 0
# Processed by: cddbd v1.5.2PL0 Copyright (c) Steve Scherf et al.
# Submitted via: ExactAudioCopy v1.0b1
#
DISCID=6a0a290a
DTITLE=Duc Huy - Bay Di Canh Chim Bien - Tinh Khuc Duc Huy
DYEAR=2005
DGENRE=Instrumental
TTITLE0=Bay Di Canh Chim Bien
TTITLE1=Mau Mat Nhung
TTITLE2=Mot Tinh Yeu
TTITLE3=Em Di
TTITLE4=Con Mua Phun
TTITLE5=Nguoi Tinh Tram Nam
TTITLE6=Tieng Mua Dem
TTITLE7=Neu Xa Nhau
TTITLE8=Mua Xuan Trong Doi Mat Em
TTITLE9=Xin Mot Ngay Mai Co Nhau
EXTD=
EXTT0=
EXTT1=
EXTT2=
EXTT3=
EXTT4=
EXTT5=
EXTT6=
EXTT7=
EXTT8=
EXTT9=
PLAYORDER=
